<svg xmlns="http://www.w3.org/2000/svg" viewBox="0 0 24 24"><g fill='#5E5E5E'><path d="M19.6 4.7c-1.8-2.1-5.2-2.1-7.1-.2l-3 3c-2.3 2.3-1.7 6.4 1.2 7.9.4.2.8.1 1.3-.4s.3-1.2-.3-1.5c-1.5-.8-2.1-3.1-.7-4.5l3-3c2.7-2.6 6.6 1.3 4 4l-1 1c.5 1.5 0 3 0 3l2.5-2.5c1.9-1.9 1.9-4.9.1-6.8z"></path><path d="M15.9 12.1c-.2-1.4-1.2-2.8-2.5-3.5-.4-.2-.9-.1-1.4.4s-.2 1.2.3 1.5c1.5.8 2 3.2.7 4.5l-3 3c-2.7 2.6-6.6-1.3-4-4l1-1c-.5-1.5 0-3 0-3l-2.5 2.5c-4.6 4.6 2.2 11.5 7 7l3-3c1.1-1.1 1.6-2.8 1.4-4.4z"></path></g></svg>