<?xml version="1.0" encoding="utf-8"?>
<!-- Generator: Adobe Illustrator 27.5.0, SVG Export Plug-In . SVG Version: 6.00 Build 0)  -->
<svg version="1.1" id="レイヤー_1" xmlns="http://www.w3.org/2000/svg" xmlns:xlink="http://www.w3.org/1999/xlink" x="0px"
	 y="0px" viewBox="0 0 600 400" enable-background="new 0 0 600 400" xml:space="preserve">
<rect fill="#FFFFFF" width="600" height="400"/>
<path fill="#0047A0" d="M347.898193,167.660889c-37.50293,0-47.897949,32.338867-47.897949,32.338867
	s-10.394989,32.339355-47.897522,32.339355c-29.82373,0-55.637756-20.586884-51.908752-72.037018
	c-4.89061,12.284592-7.60791,25.669876-7.60791,39.697662c0,59.322723,48.090439,107.413452,107.414185,107.413452
	c45.294434,0,84.011261-28.047852,99.805298-67.711807C403.536926,188.24826,377.722504,167.660889,347.898193,167.660889z"/>
<path fill="#CD2E3A" d="M300.000244,92.586281c-45.295425,0-84.013763,28.05027-99.806274,67.715813
	c-3.729004,51.450134,22.085022,72.037018,51.908752,72.037018c37.502533,0,47.897522-32.339355,47.897522-32.339355
	s10.39502-32.338867,47.897949-32.338867c29.82431,0,55.638733,20.587372,51.907349,72.040512
	c4.892487-12.285187,7.609314-25.672867,7.609314-39.701645C407.414856,140.677521,359.324005,92.586281,300.000244,92.586281z"/>
<g>
	
		<rect x="113.546516" y="105.439346" transform="matrix(0.561766 -0.827296 0.827296 0.561766 -22.345573 183.933319)" width="97.790047" height="15.238526"/>
	
		<rect x="93.416603" y="90.417114" transform="matrix(0.561764 -0.827298 0.827298 0.561764 -18.73917 160.697144)" width="97.790047" height="15.23853"/>
	
		<rect x="73.286674" y="75.395073" transform="matrix(0.561764 -0.827298 0.827298 0.561764 -15.133034 137.460663)" width="97.790367" height="15.238502"/>
</g>
<g>
	
		<rect x="446.584015" y="46.301674" transform="matrix(0.829698 -0.558212 0.558212 0.829698 24.211603 269.753937)" width="15.237964" height="97.790268"/>
	<polygon points="411.785034,63.455021 399.141418,71.960403 423.738159,108.516464 436.325043,99.926674 	"/>
	<polygon points="453.732269,153.096512 466.374878,144.588715 443.217651,110.171761 430.63266,118.76255 	"/>
	<polygon points="454.673676,37.298752 442.031158,45.803642 465.188385,80.224503 477.775299,71.632713 	"/>
	<polygon points="496.619019,126.940239 509.263611,118.431953 484.667908,81.878799 472.080994,90.469589 	"/>
</g>
<g>
	
		<rect x="154.822617" y="233.738342" transform="matrix(0.827302 -0.561757 0.561757 0.827302 -130.71814 140.06279)" width="15.237852" height="97.79071"/>
	
		<rect x="114.563156" y="263.782684" transform="matrix(0.827299 -0.561761 0.561761 0.827299 -154.549438 122.636711)" width="15.237407" height="97.790321"/>
	<polygon points="121.147507,252.924988 108.541603,261.485565 132.58551,296.896637 145.102127,288.201355 	"/>
	<polygon points="139.523026,307.113403 163.474747,342.388763 176.082657,333.825287 152.040131,298.419037 	"/>
</g>
<g>
	<polygon points="466.374878,251.104691 453.732269,242.595901 430.792877,276.689667 443.305573,285.392731 	"/>
	<polygon points="399.141418,323.732483 411.785034,332.237396 436.409058,295.63974 423.897339,286.939636 	"/>
	<polygon points="487.82019,264.18277 475.17569,255.673981 451.394379,291.018738 463.908081,299.719818 	"/>
	<polygon points="420.587738,336.810577 433.228363,345.31546 457.012573,309.968811 444.499878,301.267731 	"/>
	<polygon points="509.263611,277.260864 496.619019,268.752167 471.998901,305.347809 484.511597,314.04892 	"/>
	<polygon points="442.031158,349.888763 454.673676,358.393646 477.615082,324.298004 465.102386,315.594818 	"/>
</g>
</svg>
