<?xml version="1.0" encoding="utf-8"?>
<!-- Generator: Adobe Illustrator 27.5.0, SVG Export Plug-In . SVG Version: 6.00 Build 0)  -->
<svg version="1.1" id="レイヤー_1" xmlns="http://www.w3.org/2000/svg" xmlns:xlink="http://www.w3.org/1999/xlink" x="0px"
	 y="0px" viewBox="0 0 600 400" enable-background="new 0 0 600 400" xml:space="preserve">
<rect fill="#FF0033" width="600" height="400"/>
<rect fill="#0000FF" width="300" height="200"/>
<g>
	<path fill="#FFFFFF" d="M161.666,53.842808l-9.813507-37.542496l-9.814896,37.542496
		c3.164093-0.663097,6.445297-1.023998,9.815903-1.023998C155.223099,52.81881,158.504395,53.17971,161.666,53.842808z"/>
	<path fill="#FFFFFF" d="M193.836395,105.640106l37.542496-9.8134l-37.542496-9.814995
		c0.663101,3.164093,1.024002,6.44529,1.024002,9.815895C194.860397,99.197311,194.499496,102.478508,193.836395,105.640106z"/>
	<path fill="#FFFFFF" d="M142.039093,137.810104l9.8134,37.542404l9.814514-37.542404
		c-3.163605,0.663498-6.444809,1.023895-9.815414,1.023895C148.481903,138.834,145.200699,138.473602,142.039093,137.810104z"/>
	<path fill="#FFFFFF" d="M109.868698,86.013206l-37.542496,9.813499l37.542496,9.8144
		c-0.663101-3.163597-1.024002-6.445297-1.024002-9.815399C108.844696,92.456108,109.205597,89.174805,109.868698,86.013206z"/>
	<path fill="#FFFFFF" d="M181.31839,64.351608l10.243103-37.427299L164.3125,54.551308
		c3.0728,1.004902,6.0952,2.330502,9.015091,4.013599C176.247589,60.247108,178.911102,62.198208,181.31839,64.351608z"/>
	<path fill="#FFFFFF" d="M183.328094,125.292503l37.427795,10.243111l-27.626999-27.249008
		c-1.004898,3.0728-2.331497,6.0952-4.013702,9.015198C187.432098,120.22171,185.481003,122.885307,183.328094,125.292503z"/>
	<path fill="#FFFFFF" d="M122.386696,127.302208L112.1436,164.729996l27.248993-27.626999
		c-3.071793-1.004883-6.094696-2.331497-9.015594-4.014587C127.458,131.406204,124.794899,129.455109,122.386696,127.302208z"/>
	<path fill="#FFFFFF" d="M120.377396,66.360809L82.950203,56.11771l27.626892,27.248997
		c1.004906-3.0718,2.330605-6.095703,4.013702-9.015602C116.272896,71.432106,118.224098,68.768997,120.377396,66.360809z"/>
	<path fill="#FFFFFF" d="M193.164093,83.485809l27.705505-27.1684l-37.457504,10.134296
		c2.147995,2.416504,4.091797,5.083504,5.765106,8.009201C190.852493,77.385307,192.169891,80.411606,193.164093,83.485809z"/>
	<path fill="#FFFFFF" d="M164.19429,137.138214l27.168503,27.70549L181.2285,127.386208
		c-2.415497,2.148003-5.084503,4.090904-8.009705,5.765205C170.2939,134.825714,167.26709,136.143112,164.19429,137.138214z"/>
	<path fill="#FFFFFF" d="M110.541,108.16851l-27.706001,27.168404l37.458-10.134308
		c-2.146996-2.415497-4.089905-5.084396-5.765205-8.010696C112.8545,114.268105,111.537094,111.241211,110.541,108.16851z"/>
	<path fill="#FFFFFF" d="M139.511703,54.51511L112.3442,26.80961l10.133293,37.457497
		c2.416504-2.146996,5.084503-4.090797,8.009308-5.765106C133.411102,56.82761,136.4375,55.510307,139.511703,54.51511z"/>
	
		<ellipse transform="matrix(0.707107 -0.707107 0.707107 0.707107 -23.283123 135.442932)" fill="#FFFFFF" cx="151.852524" cy="95.826683" rx="40.469212" ry="40.469238"/>
</g>
</svg>
