<?xml version="1.0" encoding="utf-8"?>
<!-- Generator: Adobe Illustrator 27.5.0, SVG Export Plug-In . SVG Version: 6.00 Build 0)  -->
<svg version="1.1" id="レイヤー_1" xmlns="http://www.w3.org/2000/svg" xmlns:xlink="http://www.w3.org/1999/xlink" x="0px"
	 y="0px" viewBox="0 0 600 400" enable-background="new 0 0 600 400" xml:space="preserve">
<rect fill="#002267" width="600" height="400"/>
<polygon fill="#FFFFFF" points="600,0 526.5672,0 347.019958,119.696335 347.019958,0.00191 252.976212,0.00191 
	252.976212,116.597763 78.078285,0 0,0 0,52.200729 151.163467,152.975388 0,152.975388 0,247.025513 156.026276,247.025513 
	0,351.043335 0,399.996094 82.7854,399.996094 252.976212,286.537933 252.976212,400 347.02774,400 347.02774,283.550629 
	521.698059,399.996094 600,399.996094 600,347.946686 448.616821,247.025513 599.996094,247.025513 599.996094,152.975388 
	453.320007,152.975388 600,55.189507 "/>
<polygon fill="#D60029" points="600,173.434174 326.566711,173.434174 326.566711,0 273.43277,0 273.43277,173.434174 0,173.434174 
	0,226.568832 273.43277,226.568832 273.43277,400 326.568695,400 326.568695,226.568832 600,226.568832 "/>
<polygon fill="#D60029" points="0,0 0,32.67931 179.502731,152.345245 228.521301,152.345245 "/>
<polygon fill="#D60029" points="599.996094,367.318787 420.497253,247.653275 371.480713,247.655167 600,400 "/>
<polygon fill="#D60029" points="347.020782,152.345245 347.020782,135.974442 550.981506,0 600,0 371.482666,152.345245 "/>
<polygon fill="#D60029" points="228.521301,247.655197 0,400 49.020447,400 252.975372,264.031982 252.975372,247.655197 "/>
</svg>
